<svg width="544" height="195" viewBox="0 0 544 195" fill="none" xmlns="http://www.w3.org/2000/svg"><path d="M104 0H91v13h13V0z" fill="#C26F30"/><path d="M117 0h-13v13h13V0zM130 0h-13v13h13V0zM156 0h-13v13h13V0z" fill="#755634"/><path d="M169 0h-13v13h13V0z" fill="#C26F30"/><path d="M104 13H91v13h13V13zM117 13h-13v13h13V13zM130 13h-13v13h13V13zM143 13h-13v13h13V13zM156 13h-13v13h13V13z" fill="#755634"/><path d="M169 13h-13v13h13V13z" fill="#B15D30"/><path d="M182 13h-13v13h13V13z" fill="#C26F30"/><path d="M91 26H78v13h13V26zM104 26H91v13h13V26zM117 26h-13v13h13V26zM130 26h-13v13h13V26zM143 26h-13v13h13V26zM156 26h-13v13h13V26zM169 26h-13v13h13V26zM182 26h-13v13h13V26z" fill="#8C6C49"/><path d="M195 26h-13v13h13V26zM208 26h-13v13h13V26z" fill="#664929"/><path d="M65 39H52v13h13V39zM78 39H65v13h13V39zM91 39H78v13h13V39zM104 39H91v13h13V39zM117 39h-13v13h13V39zM130 39h-13v13h13V39zM143 39h-13v13h13V39zM156 39h-13v13h13V39zM169 39h-13v13h13V39z" fill="#755634"/><path d="M182 39h-13v13h13V39zM195 39h-13v13h13V39zM208 39h-13v13h13V39z" fill="#664929"/><path d="M26 52H13v13h13V52zM39 52H26v13h13V52z" fill="#C49734"/><path d="M91 52H78v13h13V52z" fill="#D18835"/><path d="M104 52H91v13h13V52z" fill="#301C11"/><path d="M117 52h-13v13h13V52zM130 52h-13v13h13V52zM143 52h-13v13h13V52z" fill="#D18835"/><path d="M156 52h-13v13h13V52z" fill="#301C11"/><path d="M169 52h-13v13h13V52zM182 52h-13v13h13V52z" fill="#D18835"/><path d="M195 52h-13v13h13V52z" fill="#C26F30"/><path d="M13 65H0v13h13V65z" fill="#C49734"/><path d="M26 65H13v13h13V65z" fill="#BFD7FD"/><path d="M39 65H26v13h13V65z" fill="#fff"/><path d="M52 65H39v13h13V65z" fill="#C49734"/><path d="M78 65H65v13h13V65z" fill="#D18835"/><path d="M91 65H78v13h13V65zM104 65H91v13h13V65zM117 65h-13v13h13V65z" fill="#4E2824"/><path d="M130 65h-13v13h13V65z" fill="#F7D1A0"/><path d="M143 65h-13v13h13V65zM156 65h-13v13h13V65zM169 65h-13v13h13V65zM182 65h-13v13h13V65zM195 65h-13v13h13V65z" fill="#D18835"/><path d="M208 65h-13v13h13V65z" fill="#C26F30"/><path d="M13 78H0v13h13V78z" fill="#C49734"/><path d="M26 78H13v13h13V78zM39 78H26v13h13V78z" fill="#BFD7FD"/><path d="M52 78H39v13h13V78z" fill="#B28424"/><path d="M78 78H65v13h13V78z" fill="#D18835"/><path d="M91 78H78v13h13V78z" fill="#F4D9B8"/><path d="M104 78H91v13h13V78z" fill="#4E2824"/><path d="M117 78h-13v13h13V78zM130 78h-13v13h13V78zM143 78h-13v13h13V78z" fill="#F7D1A0"/><path d="M156 78h-13v13h13V78z" fill="#301C11"/><path d="M169 78h-13v13h13V78zM182 78h-13v13h13V78zM195 78h-13v13h13V78z" fill="#D18835"/><path d="M208 78h-13v13h13V78z" fill="#C26F30"/><path d="M26 91H13v13h13V91z" fill="#C49734"/><path d="M39 91H26v13h13V91z" fill="#B28424"/><path d="M78 91H65v13h13V91z" fill="#D18835"/><path d="M91 91H78v13h13V91z" fill="#301C11"/><path d="M104 91H91v13h13V91z" fill="#F7D1A0"/><path d="M117 91h-13v13h13V91zM130 91h-13v13h13V91zM143 91h-13v13h13V91z" fill="#301C11"/><path d="M156 91h-13v13h13V91zM169 91h-13v13h13V91z" fill="#F7D1A0"/><path d="M182 91h-13v13h13V91zM195 91h-13v13h13V91z" fill="#D18835"/><path d="M208 91h-13v13h13V91z" fill="#B15D30"/><path d="M39 104H26v13h13v-13z" fill="#2C2722"/><path d="M78 104H65v13h13v-13z" fill="#8C6C49"/><path d="M91 104H78v13h13v-13z" fill="#F4D9B8"/><path d="M104 104H91v13h13v-13zM117 104h-13v13h13v-13zM130 104h-13v13h13v-13zM143 104h-13v13h13v-13zM156 104h-13v13h13v-13zM169 104h-13v13h13v-13z" fill="#F7D1A0"/><path d="M182 104h-13v13h13v-13zM195 104h-13v13h13v-13z" fill="#8C6C49"/><path d="M208 104h-13v13h13v-13z" fill="#755634"/><path d="M39 117H26v13h13v-13zM52 117H39v13h13v-13z" fill="#D18835"/><path d="M91 117H78v13h13v-13zM104 117H91v13h13v-13zM117 117h-13v13h13v-13z" fill="#8C6C49"/><path d="M130 117h-13v13h13v-13zM143 117h-13v13h13v-13z" fill="#F7D1A0"/><path d="M156 117h-13v13h13v-13zM169 117h-13v13h13v-13zM182 117h-13v13h13v-13z" fill="#8C6C49"/><path d="M195 117h-13v13h13v-13zM208 117h-13v13h13v-13z" fill="#664929"/><path d="M39 130H26v13h13v-13z" fill="#D18835"/><path d="M52 130H39v13h13v-13zM65 130H52v13h13v-13z" fill="#8C6C49"/><path d="M91 130H78v13h13v-13zM104 130H91v13h13v-13zM117 130h-13v13h13v-13z" fill="#755634"/><path d="M130 130h-13v13h13v-13z" fill="#D95763"/><path d="M143 130h-13v13h13v-13zM156 130h-13v13h13v-13zM169 130h-13v13h13v-13zM182 130h-13v13h13v-13zM195 130h-13v13h13v-13z" fill="#755634"/><path d="M39 143H26v13h13v-13z" fill="#2C2722"/><path d="M52 143H39v13h13v-13zM65 143H52v13h13v-13zM78 143H65v13h13v-13zM91 143H78v13h13v-13zM104 143H91v13h13v-13zM117 143h-13v13h13v-13z" fill="#8C6C49"/><path d="M130 143h-13v13h13v-13z" fill="#75190B"/><path d="M143 143h-13v13h13v-13z" fill="#BEB9A5"/><path d="M156 143h-13v13h13v-13zM169 143h-13v13h13v-13zM182 143h-13v13h13v-13z" fill="#8C6C49"/><path d="M195 143h-13v13h13v-13z" fill="#664929"/><path d="M65 156H52v13h13v-13z" fill="#755634"/><path d="M78 156H65v13h13v-13zM91 156H78v13h13v-13zM104 156H91v13h13v-13zM117 156h-13v13h13v-13z" fill="#8C6C49"/><path d="M130 156h-13v13h13v-13z" fill="#D95763"/><path d="M143 156h-13v13h13v-13z" fill="#BEB9A5"/><path d="M156 156h-13v13h13v-13zM169 156h-13v13h13v-13zM182 156h-13v13h13v-13z" fill="#8C6C49"/><path d="M195 156h-13v13h13v-13z" fill="#755634"/><path d="M104 169H91v13h13v-13zM117 169h-13v13h13v-13z" fill="#8C6C49"/><path d="M130 169h-13v13h13v-13z" fill="#D95763"/><path d="M143 169h-13v13h13v-13z" fill="#BEB9A5"/><path d="M156 169h-13v13h13v-13zM169 169h-13v13h13v-13zM182 169h-13v13h13v-13zM195 169h-13v13h13v-13zM104 182H91v13h13v-13zM117 182h-13v13h13v-13zM156 182h-13v13h13v-13zM169 182h-13v13h13v-13zM182 182h-13v13h13v-13z" fill="#8C6C49"/><g clip-path="url(#clip0)" fill="#301C11"><path d="M263.997 55h-10v10h10V55zM273.997 55h-10v10h10V55zM263.997 65h-10v10h10V65zM273.997 65h-10v10h10V65zM263.997 75h-10v10h10V75zM273.997 75h-10v10h10V75zM263.997 85h-10v10h10V85zM273.997 85h-10v10h10V85zM263.997 95h-10v10h10V95zM273.997 95h-10v10h10V95zM283.997 95h-10v10h10V95zM293.997 95h-10v10h10V95zM303.997 95h-10v10h10V95zM313.997 95h-10v10h10V95zM323.997 95h-10v10h10V95zM353.997 95h-10v10h10V95zM363.997 95h-10v10h10V95zM373.997 95h-10v10h10V95zM383.997 95h-10v10h10V95zM393.997 95h-10v10h10V95zM403.997 95h-10v10h10V95zM433.997 95h-10v10h10V95zM443.997 95h-10v10h10V95zM453.997 95h-10v10h10V95zM463.997 95h-10v10h10V95zM493.997 95h-10v10h10V95zM503.997 95h-10v10h10V95z"/><path d="M513.997 95h-10v10h10V95zM523.997 95h-10v10h10V95zM533.997 95h-10v10h10V95zM543.997 95h-10v10h10V95zM263.997 105h-10v10h10v-10zM273.997 105h-10v10h10v-10zM283.997 105h-10v10h10v-10zM293.997 105h-10v10h10v-10zM303.997 105h-10v10h10v-10zM313.997 105h-10v10h10v-10zM323.997 105h-10v10h10v-10zM353.997 105h-10v10h10v-10zM363.997 105h-10v10h10v-10zM373.997 105h-10v10h10v-10zM383.997 105h-10v10h10v-10zM393.997 105h-10v10h10v-10zM403.997 105h-10v10h10v-10zM433.997 105h-10v10h10v-10zM443.997 105h-10v10h10v-10zM453.997 105h-10v10h10v-10zM463.997 105h-10v10h10v-10zM493.997 105h-10v10h10v-10zM503.997 105h-10v10h10v-10z"/><path d="M513.997 105h-10v10h10v-10zM523.997 105h-10v10h10v-10zM533.997 105h-10v10h10v-10zM543.997 105h-10v10h10v-10zM263.997 115h-10v10h10v-10zM273.997 115h-10v10h10v-10zM313.997 115h-10v10h10v-10zM323.997 115h-10v10h10v-10zM353.997 115h-10v10h10v-10zM363.997 115h-10v10h10v-10zM393.997 115h-10v10h10v-10zM403.997 115h-10v10h10v-10zM433.997 115h-10v10h10v-10zM443.997 115h-10v10h10v-10zM493.997 115h-10v10h10v-10zM503.997 115h-10v10h10v-10zM533.997 115h-10v10h10v-10zM543.997 115h-10v10h10v-10zM263.997 125h-10v10h10v-10zM273.997 125h-10v10h10v-10zM313.997 125h-10v10h10v-10zM323.997 125h-10v10h10v-10zM353.997 125h-10v10h10v-10zM363.997 125h-10v10h10v-10zM393.997 125h-10v10h10v-10zM403.997 125h-10v10h10v-10zM433.997 125h-10v10h10v-10zM443.997 125h-10v10h10v-10zM493.997 125h-10v10h10v-10zM503.997 125h-10v10h10v-10zM533.997 125h-10v10h10v-10zM543.997 125h-10v10h10v-10zM263.997 135h-10v10h10v-10zM273.997 135h-10v10h10v-10zM313.997 135h-10v10h10v-10zM323.997 135h-10v10h10v-10zM353.997 135h-10v10h10v-10zM363.997 135h-10v10h10v-10zM393.997 135h-10v10h10v-10zM403.997 135h-10v10h10v-10zM433.997 135h-10v10h10v-10zM443.997 135h-10v10h10v-10zM493.997 135h-10v10h10v-10zM503.997 135h-10v10h10v-10z"/><path d="M513.997 135h-10v10h10v-10zM523.997 135h-10v10h10v-10zM533.997 135h-10v10h10v-10zM543.997 135h-10v10h10v-10zM263.997 145h-10v10h10v-10zM273.997 145h-10v10h10v-10zM313.997 145h-10v10h10v-10zM323.997 145h-10v10h10v-10zM353.997 145h-10v10h10v-10zM363.997 145h-10v10h10v-10zM393.997 145h-10v10h10v-10zM403.997 145h-10v10h10v-10zM433.997 145h-10v10h10v-10zM443.997 145h-10v10h10v-10zM493.997 145h-10v10h10v-10zM503.997 145h-10v10h10v-10z"/><path d="M513.997 145h-10v10h10v-10zM523.997 145h-10v10h10v-10zM533.997 145h-10v10h10v-10zM543.997 145h-10v10h10v-10zM263.997 155h-10v10h10v-10zM273.997 155h-10v10h10v-10zM313.997 155h-10v10h10v-10zM323.997 155h-10v10h10v-10zM353.997 155h-10v10h10v-10zM363.997 155h-10v10h10v-10zM373.997 155h-10v10h10v-10zM383.997 155h-10v10h10v-10zM393.997 155h-10v10h10v-10zM403.997 155h-10v10h10v-10zM433.997 155h-10v10h10v-10zM443.997 155h-10v10h10v-10zM493.997 155h-10v10h10v-10zM503.997 155h-10v10h10v-10zM533.997 155h-10v10h10v-10zM543.997 155h-10v10h10v-10zM263.997 165h-10v10h10v-10zM273.997 165h-10v10h10v-10zM313.997 165h-10v10h10v-10zM323.997 165h-10v10h10v-10zM353.997 165h-10v10h10v-10zM363.997 165h-10v10h10v-10zM373.997 165h-10v10h10v-10zM383.997 165h-10v10h10v-10zM393.997 165h-10v10h10v-10zM403.997 165h-10v10h10v-10zM433.997 165h-10v10h10v-10zM443.997 165h-10v10h10v-10zM493.997 165h-10v10h10v-10zM503.997 165h-10v10h10v-10zM533.997 165h-10v10h10v-10zM543.997 165h-10v10h10v-10z"/></g><defs><clipPath id="clip0"><path fill="#fff" transform="translate(253.997 55)" d="M0 0h290v120H0z"/></clipPath></defs></svg>